<svg width="24" height="24" viewBox="0 0 24 24" fill="none" xmlns="http://www.w3.org/2000/svg">
<circle cx="12" cy="12" r="11.5" transform="rotate(-180 12 12)" fill="#49B0AB" stroke="#2F2F38"/>
<path d="M10.6696 6.20749C10.6657 6.06472 10.6904 5.92261 10.7422 5.78955C10.7941 5.65649 10.8722 5.53518 10.9718 5.4328C11.0713 5.33042 11.1904 5.24903 11.322 5.19346C11.4535 5.13789 11.5949 5.10926 11.7377 5.10926C11.8806 5.10926 12.0219 5.13789 12.1535 5.19346C12.2851 5.24903 12.4042 5.33042 12.5037 5.4328C12.6033 5.53518 12.6813 5.65649 12.7332 5.78955C12.7851 5.92261 12.8098 6.06472 12.8058 6.20749L12.8058 10.6351C12.8058 10.6409 12.807 10.6467 12.8092 10.6521C12.8115 10.6575 12.8147 10.6624 12.8189 10.6666C12.823 10.6707 12.8279 10.674 12.8334 10.6763C12.8388 10.6785 12.8446 10.6796 12.8504 10.6796L17.278 10.6796C17.419 10.6785 17.5589 10.7052 17.6896 10.7584C17.8202 10.8116 17.939 10.8901 18.0392 10.9894C18.1394 11.0887 18.2189 11.2069 18.2731 11.3371C18.3274 11.4673 18.3553 11.6069 18.3553 11.748C18.3553 11.889 18.3274 12.0287 18.2732 12.1589C18.219 12.2891 18.1395 12.4073 18.0394 12.5066C17.9392 12.606 17.8204 12.6845 17.6898 12.7377C17.5592 12.7909 17.4193 12.8177 17.2782 12.8166H12.8507C12.8448 12.8166 12.839 12.8177 12.8336 12.82C12.8282 12.8222 12.8233 12.8255 12.8191 12.8296C12.815 12.8338 12.8117 12.8387 12.8095 12.8441C12.8072 12.8495 12.8061 12.8553 12.8061 12.8612L12.8061 17.2887C12.8073 17.4298 12.7805 17.5697 12.7273 17.7003C12.6742 17.831 12.5956 17.9498 12.4963 18.0499C12.397 18.1501 12.2788 18.2296 12.1486 18.2839C12.0184 18.3381 11.8788 18.3661 11.7377 18.3661C11.5967 18.3661 11.457 18.3382 11.3268 18.284C11.1966 18.2297 11.0784 18.1503 10.9791 18.0501C10.8797 17.95 10.8012 17.8312 10.748 17.7005C10.6948 17.5699 10.668 17.43 10.6691 17.289L10.6691 12.8614C10.6691 12.8556 10.668 12.8498 10.6658 12.8444C10.6635 12.8389 10.6602 12.834 10.6561 12.8299C10.6519 12.8257 10.647 12.8225 10.6416 12.8202C10.6362 12.818 10.6304 12.8168 10.6246 12.8168L6.19699 12.8168C5.91512 12.8146 5.64556 12.701 5.44703 12.5009C5.2485 12.3008 5.13708 12.0304 5.13705 11.7485C5.13701 11.4666 5.24837 11.1961 5.44685 10.996C5.64533 10.7958 5.91487 10.6822 6.19674 10.6799L10.6243 10.6799C10.6302 10.6799 10.636 10.6787 10.6414 10.6765C10.6468 10.6743 10.6517 10.671 10.6558 10.6668C10.66 10.6627 10.6633 10.6578 10.6655 10.6524C10.6677 10.647 10.6689 10.6412 10.6689 10.6353L10.6689 6.20774L10.6696 6.20749Z" fill="white"/>
</svg>
