<svg width="20" height="17" viewBox="0 0 20 17" fill="none" xmlns="http://www.w3.org/2000/svg">
<path d="M9.69982 16.6206C9.55985 16.5716 9.44043 16.4891 9.3566 16.3836C9.27278 16.278 9.2283 16.1541 9.22877 16.0275V12.8216H1.53813C1.13019 12.8216 0.738962 12.6865 0.450507 12.446C0.162052 12.2055 0 11.8794 0 11.5393V5.12741C0 4.78731 0.162052 4.46113 0.450507 4.22064C0.738962 3.98015 1.13019 3.84504 1.53813 3.84504H9.22877V0.639119C9.2283 0.512533 9.27278 0.388662 9.3566 0.283117C9.44043 0.177571 9.55985 0.0950746 9.69982 0.046023C9.84188 -0.000171492 9.99672 -0.0118905 10.1464 0.0122216C10.2961 0.0363338 10.4346 0.0952918 10.5458 0.182275L19.7746 7.87649C19.919 7.99805 20 8.16223 20 8.33333C20 8.50443 19.919 8.66861 19.7746 8.79018L10.5458 16.4844C10.4346 16.5714 10.2961 16.6303 10.1464 16.6544C9.99672 16.6786 9.84188 16.6668 9.69982 16.6206Z" fill="#161416"/>
</svg>
