<svg width="47" height="42" viewBox="0 0 47 42" fill="none" xmlns="http://www.w3.org/2000/svg">
<mask id="path-1-inside-1_1_457" fill="white">
<path fill-rule="evenodd" clip-rule="evenodd" d="M25.2428 20.0819C28.0034 19.2246 31.0951 19.4458 33.8295 20.9461C35.8314 22.0445 37.3579 23.6727 38.3303 25.5607C39.1862 25.6579 40.0378 25.9199 40.8397 26.3599C44.1437 28.1728 45.3525 32.3208 43.5397 35.6248C41.9961 38.438 38.7595 39.7323 35.7925 38.9356C32.4017 41.9032 27.3872 42.5986 23.2074 40.3052C21.9145 39.5958 20.8199 38.6653 19.9447 37.5867C17.1841 38.444 14.0924 38.2228 11.358 36.7224C10.7806 36.4056 10.2426 36.0446 9.74616 35.6461C7.83655 36.5486 5.53603 36.5547 3.54271 35.461C0.238709 33.6481 -0.970102 29.5001 0.842756 26.1961C2.03318 24.0265 4.23053 22.7603 6.53462 22.66C6.6705 22.3468 6.82204 22.0371 6.98952 21.7318C9.92272 16.386 16.6342 14.4301 21.9801 17.3633C23.2731 18.0727 24.3677 19.0032 25.2428 20.0819Z"/>
</mask>
<path fill-rule="evenodd" clip-rule="evenodd" d="M25.2428 20.0819C28.0034 19.2246 31.0951 19.4458 33.8295 20.9461C35.8314 22.0445 37.3579 23.6727 38.3303 25.5607C39.1862 25.6579 40.0378 25.9199 40.8397 26.3599C44.1437 28.1728 45.3525 32.3208 43.5397 35.6248C41.9961 38.438 38.7595 39.7323 35.7925 38.9356C32.4017 41.9032 27.3872 42.5986 23.2074 40.3052C21.9145 39.5958 20.8199 38.6653 19.9447 37.5867C17.1841 38.444 14.0924 38.2228 11.358 36.7224C10.7806 36.4056 10.2426 36.0446 9.74616 35.6461C7.83655 36.5486 5.53603 36.5547 3.54271 35.461C0.238709 33.6481 -0.970102 29.5001 0.842756 26.1961C2.03318 24.0265 4.23053 22.7603 6.53462 22.66C6.6705 22.3468 6.82204 22.0371 6.98952 21.7318C9.92272 16.386 16.6342 14.4301 21.9801 17.3633C23.2731 18.0727 24.3677 19.0032 25.2428 20.0819Z" fill="#9FCCEF"/>
<path d="M33.8295 20.9461L33.3485 21.8228L33.8295 20.9461ZM25.2428 20.0819L24.4663 20.7119L24.8928 21.2377L25.5394 21.0369L25.2428 20.0819ZM38.3303 25.5607L37.4413 26.0186L37.6861 26.4939L38.2174 26.5543L38.3303 25.5607ZM40.8397 26.3599L40.3587 27.2366V27.2366L40.8397 26.3599ZM43.5397 35.6248L44.4164 36.1058L43.5397 35.6248ZM35.7925 38.9356L36.0519 37.9698L35.5359 37.8313L35.1339 38.1831L35.7925 38.9356ZM23.2074 40.3052L22.7264 41.1819H22.7264L23.2074 40.3052ZM19.9447 37.5867L20.7213 36.9566L20.2947 36.4309L19.6481 36.6317L19.9447 37.5867ZM11.358 36.7224L10.877 37.5991L11.358 36.7224ZM9.74616 35.6461L10.3722 34.8663L9.8844 34.4747L9.31888 34.742L9.74616 35.6461ZM3.54271 35.461L3.06168 36.3377H3.06168L3.54271 35.461ZM0.842756 26.1961L1.71946 26.6771L0.842756 26.1961ZM6.53462 22.66L6.57814 23.659L7.20304 23.6318L7.452 23.058L6.53462 22.66ZM6.98952 21.7318L7.86622 22.2129L6.98952 21.7318ZM21.9801 17.3633L21.4991 18.24L21.9801 17.3633ZM34.3106 20.0694C31.3286 18.4332 27.9552 18.1924 24.9463 19.1268L25.5394 21.0369C28.0517 20.2567 30.8616 20.4583 33.3485 21.8228L34.3106 20.0694ZM39.2193 25.1028C38.1585 23.0433 36.4925 21.2666 34.3106 20.0694L33.3485 21.8228C35.1703 22.8224 36.5573 24.3022 37.4413 26.0186L39.2193 25.1028ZM41.3207 25.4832C40.4029 24.9796 39.426 24.6787 38.4432 24.5671L38.2174 26.5543C38.9464 26.6371 39.6727 26.8602 40.3587 27.2366L41.3207 25.4832ZM44.4164 36.1058C46.4949 32.3176 45.1089 27.5617 41.3207 25.4832L40.3587 27.2366C43.1785 28.7838 44.2101 32.3239 42.663 35.1438L44.4164 36.1058ZM35.5332 39.9014C38.935 40.8148 42.6459 39.3325 44.4164 36.1058L42.663 35.1438C41.3462 37.5436 38.5841 38.6497 36.0519 37.9698L35.5332 39.9014ZM22.7264 41.1819C27.2861 43.6837 32.7544 42.9235 36.4511 39.6881L35.1339 38.1831C32.0491 40.883 27.4883 41.5134 23.6885 39.4285L22.7264 41.1819ZM19.1681 38.2167C20.1235 39.3942 21.318 40.4091 22.7264 41.1819L23.6885 39.4285C22.511 38.7825 21.5162 37.9365 20.7213 36.9566L19.1681 38.2167ZM10.877 37.5991C13.8589 39.2353 17.2323 39.4761 20.2413 38.5417L19.6481 36.6317C17.1359 37.4118 14.3259 37.2103 11.8391 35.8457L10.877 37.5991ZM9.12016 36.4259C9.66184 36.8608 10.2483 37.2542 10.877 37.5991L11.8391 35.8457C11.3129 35.557 10.8234 35.2285 10.3722 34.8663L9.12016 36.4259ZM3.06168 36.3377C5.34776 37.592 7.98661 37.5837 10.1734 36.5502L9.31888 34.742C7.68648 35.5134 5.7243 35.5173 4.02374 34.5843L3.06168 36.3377ZM-0.0339466 25.7151C-2.11247 29.5032 -0.726514 34.2592 3.06168 36.3377L4.02374 34.5843C1.20393 33.0371 0.172268 29.4969 1.71946 26.6771L-0.0339466 25.7151ZM6.4911 21.6609C3.85241 21.7759 1.3315 23.2265 -0.0339466 25.7151L1.71946 26.6771C2.73487 24.8265 4.60866 23.7448 6.57814 23.659L6.4911 21.6609ZM6.11282 21.2508C5.93048 21.5831 5.76538 21.9205 5.61724 22.2619L7.452 23.058C7.57562 22.773 7.71359 22.4911 7.86622 22.2129L6.11282 21.2508ZM22.4612 16.4866C16.6311 13.2877 9.31169 15.4207 6.11282 21.2508L7.86622 22.2129C10.5338 17.3512 16.6374 15.5725 21.4991 18.24L22.4612 16.4866ZM26.0194 19.4518C25.0641 18.2743 23.8696 17.2594 22.4612 16.4866L21.4991 18.24C22.6765 18.8861 23.6713 19.7321 24.4663 20.7119L26.0194 19.4518Z" fill="black" mask="url(#path-1-inside-1_1_457)"/>
<path d="M32.2666 24.1322L32.6363 24.3351C34.312 25.2546 35.2618 27.0994 35.0368 28.9976V28.9976" stroke="white" stroke-width="2" stroke-linecap="round"/>
<path d="M43.6877 1.4193C43.7151 1.42723 43.7282 1.43855 43.7356 1.44715C43.7443 1.45732 43.7521 1.47232 43.7554 1.49202C43.7618 1.5305 43.7501 1.57484 43.7044 1.61004L42.9463 2.19412C33.0964 9.78315 32.9339 24.5855 42.6147 32.389C42.637 32.407 42.6466 32.4242 42.6513 32.438C42.6566 32.4536 42.6575 32.4705 42.6541 32.4863C42.6508 32.502 42.6441 32.5128 42.6378 32.5192C42.6332 32.5241 42.6233 32.5326 42.5987 32.5379C40.4989 32.9881 38.3261 33.0132 36.2094 32.6072C33.7179 32.1293 31.3753 31.0677 29.3734 29.5095C27.3715 27.9513 25.7674 25.9409 24.6926 23.643C23.6178 21.3451 23.1029 18.8252 23.1901 16.2898C23.2773 13.7545 23.9642 11.2759 25.1944 9.05733C26.4245 6.83873 28.163 4.94327 30.2673 3.52634C32.3715 2.10941 34.7816 1.21136 37.3 0.905815C39.4459 0.645466 41.6183 0.821628 43.6877 1.4193Z" fill="#F2CC6F"/>
<path d="M43.6877 1.4193C43.7151 1.42723 43.7282 1.43855 43.7356 1.44715C43.7443 1.45732 43.7521 1.47232 43.7554 1.49202C43.7618 1.5305 43.7501 1.57484 43.7044 1.61004L42.9463 2.19412C33.0964 9.78315 32.9339 24.5855 42.6147 32.389C42.637 32.407 42.6466 32.4242 42.6513 32.438C42.6566 32.4536 42.6575 32.4705 42.6541 32.4863C42.6508 32.502 42.6441 32.5128 42.6378 32.5192C42.6332 32.5241 42.6233 32.5326 42.5987 32.5379C40.4989 32.9881 38.3261 33.0132 36.2094 32.6072C33.7179 32.1293 31.3753 31.0677 29.3734 29.5095C27.3715 27.9513 25.7674 25.9409 24.6926 23.643C23.6178 21.3451 23.1029 18.8252 23.1901 16.2898C23.2773 13.7545 23.9642 11.2759 25.1944 9.05733C26.4245 6.83873 28.163 4.94327 30.2673 3.52634C32.3715 2.10941 34.7816 1.21136 37.3 0.905815C39.4459 0.645466 41.6183 0.821628 43.6877 1.4193Z" fill="#F2CC6F"/>
<path d="M43.6877 1.4193C43.7151 1.42723 43.7282 1.43855 43.7356 1.44715C43.7443 1.45732 43.7521 1.47232 43.7554 1.49202C43.7618 1.5305 43.7501 1.57484 43.7044 1.61004L42.9463 2.19412C33.0964 9.78315 32.9339 24.5855 42.6147 32.389C42.637 32.407 42.6466 32.4242 42.6513 32.438C42.6566 32.4536 42.6575 32.4705 42.6541 32.4863C42.6508 32.502 42.6441 32.5128 42.6378 32.5192C42.6332 32.5241 42.6233 32.5326 42.5987 32.5379C40.4989 32.9881 38.3261 33.0132 36.2094 32.6072C33.7179 32.1293 31.3753 31.0677 29.3734 29.5095C27.3715 27.9513 25.7674 25.9409 24.6926 23.643C23.6178 21.3451 23.1029 18.8252 23.1901 16.2898C23.2773 13.7545 23.9642 11.2759 25.1944 9.05733C26.4245 6.83873 28.163 4.94327 30.2673 3.52634C32.3715 2.10941 34.7816 1.21136 37.3 0.905815C39.4459 0.645466 41.6183 0.821628 43.6877 1.4193Z" fill="#F7E5B9"/>
<path d="M43.6877 1.4193C43.7151 1.42723 43.7282 1.43855 43.7356 1.44715C43.7443 1.45732 43.7521 1.47232 43.7554 1.49202C43.7618 1.5305 43.7501 1.57484 43.7044 1.61004L42.9463 2.19412C33.0964 9.78315 32.9339 24.5855 42.6147 32.389C42.637 32.407 42.6466 32.4242 42.6513 32.438C42.6566 32.4536 42.6575 32.4705 42.6541 32.4863C42.6508 32.502 42.6441 32.5128 42.6378 32.5192C42.6332 32.5241 42.6233 32.5326 42.5987 32.5379C40.4989 32.9881 38.3261 33.0132 36.2094 32.6072C33.7179 32.1293 31.3753 31.0677 29.3734 29.5095C27.3715 27.9513 25.7674 25.9409 24.6926 23.643C23.6178 21.3451 23.1029 18.8252 23.1901 16.2898C23.2773 13.7545 23.9642 11.2759 25.1944 9.05733C26.4245 6.83873 28.163 4.94327 30.2673 3.52634C32.3715 2.10941 34.7816 1.21136 37.3 0.905815C39.4459 0.645466 41.6183 0.821628 43.6877 1.4193Z" stroke="black"/>
</svg>
