<svg width="36" height="36" viewBox="0 0 36 36" fill="none" xmlns="http://www.w3.org/2000/svg">
<path d="M10.3943 26.5145L10.3825 26.5133L10.3707 26.5132C10.2374 26.5124 10.106 26.4818 9.98605 26.4235C9.86608 26.3653 9.76056 26.2809 9.67722 26.1765C9.59388 26.0721 9.53484 25.9504 9.50444 25.8201C9.47415 25.6903 9.47307 25.5554 9.50127 25.4252L10.541 20.9281L19.0862 12.3538L23.6464 16.9135L15.0685 25.4772L10.5683 26.5158C10.5104 26.5208 10.4521 26.5203 10.3943 26.5145Z" fill="#9FB9EB" stroke="black" stroke-width="0.5"/>
<path d="M26.2367 13.1848L26.2375 13.1856C26.3264 13.2738 26.3971 13.3786 26.4454 13.4941C26.4938 13.6096 26.5189 13.7335 26.5193 13.8587C26.5198 13.9839 26.4955 14.108 26.4479 14.2238C26.4004 14.3396 26.3305 14.4448 26.2424 14.5335C26.2423 14.5336 26.2422 14.5337 26.2421 14.5337L24.514 16.2618L19.7383 11.4861L21.4664 9.75803C21.4665 9.75796 21.4665 9.75789 21.4666 9.75781C21.6451 9.58038 21.8865 9.48077 22.1382 9.48077C22.3898 9.48077 22.6313 9.58039 22.8097 9.75785C22.8098 9.75791 22.8099 9.75797 22.8099 9.75803L26.2367 13.1848Z" fill="#9FB9EB" stroke="black" stroke-width="0.5"/>
</svg>
