<svg width="51" height="49" viewBox="0 0 51 49" fill="none" xmlns="http://www.w3.org/2000/svg">
<path d="M2 48.5001L50.5 2V32.5C50.5 47.7 37 48.5 32.5 48.5L2 48.5001Z" fill="white" stroke="black"/>
<path d="M43.4626 32.7181L43.4618 32.7172L34.8822 24.034L34.882 24.0337C34.8587 24.0101 34.8397 24.0035 34.8262 24.0012C34.8099 23.9984 34.7888 24 34.7663 24.0096C34.7438 24.0192 34.7254 24.0346 34.7132 24.0523C34.7024 24.0679 34.6924 24.0909 34.6924 24.1279V24.134L34.1924 24.1279L34.6924 24.134L34.6924 24.1342L34.6924 24.1349L34.6923 24.1378L34.6922 24.1492L34.6917 24.1935L34.6896 24.3616L34.6823 24.9615L34.66 26.7821C34.6517 27.4441 34.6434 28.1062 34.6368 28.6029C34.6335 28.8511 34.6307 29.0583 34.6286 29.2035L34.6259 29.3731L34.625 29.4204L34.6245 29.4378L34.6238 29.4527C34.6237 29.4548 34.6231 29.4647 34.6217 29.4772C34.6208 29.4852 34.6174 29.5085 34.6145 29.5239C34.6048 29.5624 34.4431 29.7857 34.206 29.8928L34.2101 29.9163C33.8667 29.976 33.54 30.0295 33.2276 30.0807C31.9467 30.2906 30.907 30.461 29.9475 30.8504C28.796 31.3177 27.7544 32.1102 26.6641 33.7537C25.8342 35.0048 25.396 36.8231 25.521 38.5818C25.6462 40.341 26.3255 41.9477 27.6188 42.8688L43.4626 32.7181ZM43.4626 32.7181C43.4857 32.7414 43.5 32.7747 43.5 32.8133C43.5 32.8519 43.4857 32.8851 43.4626 32.9084L43.4618 32.9093L34.8822 41.5926L34.8802 41.5946C34.8562 41.6192 34.837 41.6257 34.8241 41.628C34.8084 41.6308 34.7881 41.6293 34.7663 41.62C34.7445 41.6107 34.7262 41.5956 34.7139 41.5776C34.7029 41.5616 34.6924 41.5374 34.6924 41.4986V36.26V35.76H34.1924C34.1906 35.76 34.1887 35.76 34.1866 35.76C34.1526 35.7599 34.0782 35.7598 33.9925 35.776L43.4626 32.7181ZM28.0471 41.873L28.0468 41.8769C28.0327 42.0718 28.0176 42.2803 27.9879 42.4805C27.9572 42.6883 27.9158 42.8475 27.8667 42.9498C27.8578 42.9684 27.85 42.9823 27.8437 42.9927C27.8063 42.9812 27.7341 42.9507 27.6188 42.8688L28.0471 41.873ZM27.8235 43.0191C27.8235 43.019 27.8246 43.0178 27.8269 43.0161C27.8247 43.0184 27.8236 43.0193 27.8235 43.0191Z" fill="black" stroke="black"/>
</svg>
