<svg width="50" height="42" viewBox="0 0 50 42" fill="none" xmlns="http://www.w3.org/2000/svg">
<g opacity="0.9">
<circle cx="33.226" cy="16.5" r="16" fill="#F2CC6F"/>
<circle cx="33.226" cy="16.5" r="16" fill="#F2CC6F"/>
<circle cx="33.226" cy="16.5" r="16" fill="url(#paint0_linear_1_472)"/>
<circle cx="33.226" cy="16.5" r="16" stroke="black"/>
</g>
<mask id="path-2-inside-1_1_472" fill="white">
<path fill-rule="evenodd" clip-rule="evenodd" d="M25.6825 20.0819C28.4431 19.2246 31.5348 19.4458 34.2692 20.9461C36.2711 22.0445 37.7976 23.6728 38.77 25.5607C39.6259 25.658 40.4775 25.92 41.2794 26.36C44.5834 28.1728 45.7922 32.3208 43.9794 35.6248C42.4358 38.4381 39.1992 39.7323 36.2322 38.9357C32.8414 41.9033 27.8269 42.5986 23.6471 40.3053C22.3542 39.5958 21.2596 38.6654 20.3844 37.5867C17.6238 38.444 14.5321 38.2228 11.7977 36.7225C11.2203 36.4057 10.6823 36.0447 10.1859 35.6462C8.27625 36.5486 5.97573 36.5547 3.98241 35.461C0.678406 33.6482 -0.530405 29.5001 1.28245 26.1961C2.47288 24.0265 4.67023 22.7604 6.97432 22.66C7.1102 22.3468 7.26174 22.0371 7.42922 21.7319C10.3624 16.386 17.0739 14.4302 22.4198 17.3634C23.7128 18.0728 24.8074 19.0032 25.6825 20.0819Z"/>
</mask>
<path fill-rule="evenodd" clip-rule="evenodd" d="M25.6825 20.0819C28.4431 19.2246 31.5348 19.4458 34.2692 20.9461C36.2711 22.0445 37.7976 23.6728 38.77 25.5607C39.6259 25.658 40.4775 25.92 41.2794 26.36C44.5834 28.1728 45.7922 32.3208 43.9794 35.6248C42.4358 38.4381 39.1992 39.7323 36.2322 38.9357C32.8414 41.9033 27.8269 42.5986 23.6471 40.3053C22.3542 39.5958 21.2596 38.6654 20.3844 37.5867C17.6238 38.444 14.5321 38.2228 11.7977 36.7225C11.2203 36.4057 10.6823 36.0447 10.1859 35.6462C8.27625 36.5486 5.97573 36.5547 3.98241 35.461C0.678406 33.6482 -0.530405 29.5001 1.28245 26.1961C2.47288 24.0265 4.67023 22.7604 6.97432 22.66C7.1102 22.3468 7.26174 22.0371 7.42922 21.7319C10.3624 16.386 17.0739 14.4302 22.4198 17.3634C23.7128 18.0728 24.8074 19.0032 25.6825 20.0819Z" fill="#9FCCEF"/>
<path d="M34.2692 20.9461L33.7882 21.8228L34.2692 20.9461ZM25.6825 20.0819L24.906 20.712L25.3325 21.2377L25.9791 21.0369L25.6825 20.0819ZM38.77 25.5607L37.881 26.0186L38.1258 26.494L38.6571 26.5543L38.77 25.5607ZM41.2794 26.36L40.7984 27.2367V27.2367L41.2794 26.36ZM43.9794 35.6248L44.8561 36.1059L43.9794 35.6248ZM36.2322 38.9357L36.4916 37.9699L35.9756 37.8314L35.5736 38.1832L36.2322 38.9357ZM23.6471 40.3053L23.1661 41.182H23.1661L23.6471 40.3053ZM20.3844 37.5867L21.161 36.9567L20.7344 36.4309L20.0878 36.6317L20.3844 37.5867ZM11.7977 36.7225L11.3167 37.5992L11.7977 36.7225ZM10.1859 35.6462L10.8119 34.8663L10.3241 34.4748L9.75858 34.742L10.1859 35.6462ZM3.98241 35.461L3.50137 36.3377H3.50137L3.98241 35.461ZM1.28245 26.1961L2.15915 26.6772L1.28245 26.1961ZM6.97432 22.66L7.01784 23.6591L7.64274 23.6318L7.89169 23.058L6.97432 22.66ZM7.42922 21.7319L8.30592 22.2129L7.42922 21.7319ZM22.4198 17.3634L21.9388 18.2401L22.4198 17.3634ZM34.7502 20.0694C31.7683 18.4333 28.3949 18.1925 25.386 19.1269L25.9791 21.0369C28.4914 20.2568 31.3013 20.4583 33.7882 21.8228L34.7502 20.0694ZM39.659 25.1028C38.5982 23.0433 36.9322 21.2667 34.7502 20.0694L33.7882 21.8228C35.61 22.8224 36.9969 24.3022 37.881 26.0186L39.659 25.1028ZM41.7604 25.4833C40.8426 24.9797 39.8657 24.6788 38.8829 24.5671L38.6571 26.5543C39.3861 26.6372 40.1124 26.8603 40.7984 27.2367L41.7604 25.4833ZM44.8561 36.1059C46.9346 32.3177 45.5486 27.5618 41.7604 25.4833L40.7984 27.2367C43.6182 28.7838 44.6498 32.324 43.1027 35.1438L44.8561 36.1059ZM35.9729 39.9015C39.3747 40.8148 43.0856 39.3325 44.8561 36.1059L43.1027 35.1438C41.7859 37.5436 39.0238 38.6498 36.4916 37.9699L35.9729 39.9015ZM23.1661 41.182C27.7258 43.6838 33.1941 42.9235 36.8908 39.6882L35.5736 38.1832C32.4888 40.883 27.928 41.5135 24.1282 39.4286L23.1661 41.182ZM19.6078 38.2168C20.5632 39.3943 21.7577 40.4092 23.1661 41.182L24.1282 39.4286C22.9507 38.7825 21.9559 37.9365 21.161 36.9567L19.6078 38.2168ZM11.3167 37.5992C14.2986 39.2353 17.672 39.4762 20.681 38.5417L20.0878 36.6317C17.5756 37.4119 14.7656 37.2103 12.2788 35.8458L11.3167 37.5992ZM9.55985 36.426C10.1015 36.8608 10.6879 37.2542 11.3167 37.5992L12.2788 35.8458C11.7526 35.5571 11.2631 35.2286 10.8119 34.8663L9.55985 36.426ZM3.50137 36.3377C5.78746 37.5921 8.42631 37.5838 10.6131 36.5503L9.75858 34.742C8.12618 35.5135 6.16399 35.5174 4.46344 34.5843L3.50137 36.3377ZM0.405751 25.7151C-1.67277 29.5033 -0.286816 34.2592 3.50137 36.3377L4.46344 34.5843C1.64363 33.0371 0.611965 29.497 2.15915 26.6772L0.405751 25.7151ZM6.93079 21.661C4.2921 21.7759 1.77119 23.2265 0.405751 25.7151L2.15915 26.6772C3.17457 24.8266 5.04836 23.7449 7.01784 23.6591L6.93079 21.661ZM6.55251 21.2509C6.37018 21.5832 6.20507 21.9206 6.05694 22.262L7.89169 23.058C8.01532 22.7731 8.15329 22.4911 8.30592 22.2129L6.55251 21.2509ZM22.9008 16.4867C17.0708 13.2878 9.75138 15.4208 6.55251 21.2509L8.30592 22.2129C10.9735 17.3513 17.0771 15.5725 21.9388 18.2401L22.9008 16.4867ZM26.4591 19.4519C25.5038 18.2743 24.3093 17.2595 22.9008 16.4867L21.9388 18.2401C23.1162 18.8861 24.111 19.7321 24.906 20.712L26.4591 19.4519Z" fill="black" mask="url(#path-2-inside-1_1_472)"/>
<path d="M32.7063 24.1323L33.076 24.3351C34.7517 25.2547 35.7015 27.0994 35.4764 28.9976V28.9976" stroke="white" stroke-width="2" stroke-linecap="round"/>
<defs>
<linearGradient id="paint0_linear_1_472" x1="33.226" y1="0" x2="33.226" y2="33" gradientUnits="userSpaceOnUse">
<stop stop-color="#F2CC6F"/>
<stop offset="1" stop-color="#EBB84D" stop-opacity="0"/>
</linearGradient>
</defs>
</svg>
