<svg width="36" height="36" viewBox="0 0 36 36" fill="none" xmlns="http://www.w3.org/2000/svg">
<path d="M10.3942 26.5145L10.3824 26.5133L10.3705 26.5132C10.2373 26.5124 10.1059 26.4818 9.98592 26.4235C9.86595 26.3653 9.76043 26.2809 9.67709 26.1765C9.59376 26.0721 9.53471 25.9504 9.50432 25.8201C9.47403 25.6903 9.47295 25.5554 9.50115 25.4252L10.5409 20.9281L19.086 12.3538L23.6463 16.9135L15.0684 25.4772L10.5681 26.5158C10.5102 26.5208 10.452 26.5203 10.3942 26.5145Z" fill="#49B0AB" stroke="black" stroke-width="0.5"/>
<path d="M26.2366 13.1848L26.2374 13.1856C26.3263 13.2738 26.397 13.3786 26.4453 13.4941C26.4937 13.6096 26.5188 13.7335 26.5192 13.8587C26.5197 13.9839 26.4954 14.108 26.4478 14.2238C26.4003 14.3396 26.3304 14.4448 26.2422 14.5335C26.2421 14.5336 26.2421 14.5337 26.242 14.5337L24.5139 16.2618L19.7382 11.4861L21.4663 9.75803C21.4663 9.75796 21.4664 9.75789 21.4665 9.75781C21.6449 9.58038 21.8864 9.48077 22.138 9.48077C22.3897 9.48077 22.6312 9.58039 22.8096 9.75785C22.8097 9.75791 22.8097 9.75797 22.8098 9.75803L26.2366 13.1848Z" fill="#49B0AB" stroke="black" stroke-width="0.5"/>
</svg>
