<?xml version="1.0" encoding="utf-8"?><!-- Uploaded to: SVG Repo, www.svgrepo.com, Generator: SVG Repo Mixer Tools -->
<svg width="800px" height="800px" viewBox="0 0 24 24" fill="none" xmlns="http://www.w3.org/2000/svg"><path d="M20.2 3h-4.4a.8.8 0 0 0-.8.8v16.4a.8.8 0 0 0 .8.8h4.4a.8.8 0 0 0 .8-.8V3.8a.8.8 0 0 0-.8-.8ZM8.2 3H3.8a.8.8 0 0 0-.8.8v16.4a.8.8 0 0 0 .8.8h4.4a.8.8 0 0 0 .8-.8V3.8a.8.8 0 0 0-.8-.8Z" fill="#000000" fill-opacity=".16" stroke="#000000" stroke-width="1.5" stroke-miterlimit="10"/></svg>