<svg width="20" height="20" viewBox="0 0 20 20" fill="none" xmlns="http://www.w3.org/2000/svg">
<path opacity="0.9" d="M4.67905 2.36216C5.11987 1.94035 5.18396 1.22913 4.75737 0.792923C4.40145 0.42897 3.82517 0.386882 3.4512 0.732259C1.67109 2.37624 0.448436 4.62255 0.0950754 7.15745C0.015872 7.72563 0.478492 8.20513 1.05217 8.20513C1.58728 8.20513 2.02296 7.78531 2.10924 7.25719C2.42259 5.33917 3.3479 3.63591 4.67905 2.36216ZM17.8907 7.25874C17.9771 7.78597 18.412 8.20513 18.9463 8.20513C19.5203 8.20513 19.9825 7.72446 19.9018 7.15619C19.5423 4.62388 18.3216 2.37965 16.5505 0.736295C16.1762 0.389017 15.5978 0.431643 15.2421 0.797922C14.8199 1.23274 14.8831 1.93826 15.3199 2.35844C16.6448 3.63293 17.5759 5.33822 17.8907 7.25874ZM16.0181 8.71795C16.0181 5.82192 14.6265 3.35971 12.1713 2.44053C11.788 2.29702 11.5045 1.94777 11.5045 1.53846C11.5045 0.68718 10.8325 0 10 0C9.1675 0 8.49549 0.68718 8.49549 1.53846C8.49549 1.9477 8.21192 2.29685 7.82843 2.43969C5.36563 3.35703 3.98195 5.8118 3.98195 8.71795V12.4116C3.98195 13.3312 3.62192 14.2143 2.97894 14.8718L2.18361 15.6851C2.05048 15.8212 1.97593 16.0041 1.97593 16.1945C1.97593 16.5969 2.30213 16.9231 2.70452 16.9231H17.2955C17.6979 16.9231 18.0241 16.5969 18.0241 16.1945C18.0241 16.0041 17.9495 15.8212 17.8164 15.6851L17.0211 14.8718C16.3781 14.2143 16.0181 13.3312 16.0181 12.4116V8.71795ZM10 20C10.1404 20 10.2708 19.9897 10.4012 19.959C11.0532 19.8154 11.5848 19.3641 11.8455 18.7487C12.0163 18.3297 11.6292 17.9487 11.1768 17.9487H9.99889C8.88898 17.9487 7.97334 19.038 8.89254 19.6601C9.20968 19.8747 9.58987 20 10 20Z" fill="black"/>
</svg>
